<?xml version="1.0" encoding="UTF-8"?>
<svg xmlns="http://www.w3.org/2000/svg" width="16" height="11" viewBox="0 0 3 2" role="img" aria-label="China flag">
  <rect width="3" height="2" fill="#de2910"/>
  <!-- Stars (simplified) -->
  <g fill="#ffde00" transform="translate(0.55 0.55) scale(0.18)">
    <polygon points="0,-1 0.224,-0.309 0.951,-0.309 0.363,0.118 0.588,0.809 0,0.382 -0.588,0.809 -0.363,0.118 -0.951,-0.309 -0.224,-0.309"/>
  </g>
  <g fill="#ffde00" transform="translate(1.05 0.25) scale(0.08)">
    <polygon points="0,-1 0.224,-0.309 0.951,-0.309 0.363,0.118 0.588,0.809 0,0.382 -0.588,0.809 -0.363,0.118 -0.951,-0.309 -0.224,-0.309"/>
  </g>
  <g fill="#ffde00" transform="translate(1.2 0.45) scale(0.08)">
    <polygon points="0,-1 0.224,-0.309 0.951,-0.309 0.363,0.118 0.588,0.809 0,0.382 -0.588,0.809 -0.363,0.118 -0.951,-0.309 -0.224,-0.309"/>
  </g>
  <g fill="#ffde00" transform="translate(1.2 0.68) scale(0.08)">
    <polygon points="0,-1 0.224,-0.309 0.951,-0.309 0.363,0.118 0.588,0.809 0,0.382 -0.588,0.809 -0.363,0.118 -0.951,-0.309 -0.224,-0.309"/>
  </g>
  <g fill="#ffde00" transform="translate(1.05 0.86) scale(0.08)">
    <polygon points="0,-1 0.224,-0.309 0.951,-0.309 0.363,0.118 0.588,0.809 0,0.382 -0.588,0.809 -0.363,0.118 -0.951,-0.309 -0.224,-0.309"/>
  </g>
</svg>

